<?xml version="1.0" encoding="UTF-8" standalone="no"?>
<!-- Created with Inkscape (http://www.inkscape.org/) -->

<svg
   width="300"
   height="70"
   viewBox="0 0 79.375002 18.520834"
   version="1.1"
   id="svg5352"
   sodipodi:docname="bolid.svg"
   inkscape:export-filename="/home/adrian/PycharmProjects/pythonProject/media/bolid_pink_1.png"
   inkscape:export-xdpi="95.999992"
   inkscape:export-ydpi="95.999992"
   inkscape:version="1.1.2 (0a00cf5339, 2022-02-04)"
   xmlns:inkscape="http://www.inkscape.org/namespaces/inkscape"
   xmlns:sodipodi="http://sodipodi.sourceforge.net/DTD/sodipodi-0.dtd"
   xmlns="http://www.w3.org/2000/svg"
   xmlns:svg="http://www.w3.org/2000/svg">
  <sodipodi:namedview
     id="namedview5354"
     pagecolor="#505050"
     bordercolor="#ffffff"
     borderopacity="1"
     inkscape:pageshadow="0"
     inkscape:pageopacity="0"
     inkscape:pagecheckerboard="1"
     inkscape:document-units="mm"
     showgrid="false"
     units="px"
     inkscape:zoom="2.1266375"
     inkscape:cx="242.40144"
     inkscape:cy="89.342918"
     inkscape:window-width="1920"
     inkscape:window-height="1043"
     inkscape:window-x="1920"
     inkscape:window-y="0"
     inkscape:window-maximized="1"
     inkscape:current-layer="layer1"
     width="300px" />
  <defs
     id="defs5349" />
  <g
     inkscape:label="Layer 1"
     id="layer1"
     inkscape:groupmode="layer">
    <g
       id="g13385"
       transform="matrix(0.65831089,0,0,0.65831089,-3.8789848,-1.4795036)"
       inkscape:export-filename="/home/adrian/PycharmProjects/pythonProject/media/bolid_yellow_1.png"
       inkscape:export-xdpi="96"
       inkscape:export-ydpi="96">
      <g
         id="g13374">
        <ellipse
           style="fill:#666666;stroke-width:0.264583"
           id="path6235-6"
           ry="5.3059397"
           rx="5.4455485"
           cy="22.371611"
           cx="98.312241"
           inkscape:label="felgaP" />
        <path
           d="m 96.323044,29.584735 c -2.06872,-0.480768 -4.28577,-2.223108 -5.24183,-4.119445 -0.67258,-1.33407 -0.8898,-3.356302 -0.51787,-4.821195 0.69148,-2.723483 3.04313,-4.909315 5.95941,-5.539226 1.29542,-0.279809 3.497246,-0.134335 4.745716,0.313549 1.98153,0.710867 3.76362,2.358895 4.5787,4.234256 0.57056,1.312738 0.56717,4.047109 -0.007,5.389667 -0.79628,1.862944 -2.58069,3.516746 -4.57204,4.237388 -1.12463,0.406988 -3.797326,0.571823 -4.945426,0.305006 z m 3.753266,-3.205036 c 1.66569,-0.578462 3.00672,-2.376871 3.00672,-4.032191 0,-1.791192 -1.49903,-3.632382 -3.367916,-4.136673 -4.65519,-1.256127 -8.05019,3.867016 -4.73194,7.140623 1.34167,1.32362 3.17614,1.69398 5.093136,1.028241 z"
           style="display:inline;fill:#000000;stroke-width:0.17482"
           id="path3387"
           sodipodi:nodetypes="sssssssssssssss"
           inkscape:label="oponaP" />
      </g>
      <g
         id="g13370">
        <ellipse
           style="fill:#666666;stroke-width:0.264583"
           id="path6235"
           ry="5.3059397"
           rx="5.4455485"
           cy="22.565054"
           cx="34.722797"
           inkscape:label="felfaT" />
        <path
           d="M 32.746726,29.609517 C 30.67801,29.128749 28.460952,27.38641 27.504899,25.490072 26.832318,24.156001 26.615101,22.13377 26.98703,20.668877 c 0.691481,-2.723484 3.043122,-4.909315 5.959409,-5.539225 1.295431,-0.27981 3.497254,-0.134336 4.745722,0.313549 1.981526,0.710866 3.763619,2.358894 4.578707,4.234255 0.570553,1.312738 0.567168,4.047109 -0.0067,5.389667 -0.796268,1.862944 -2.580679,3.516746 -4.572032,4.237388 -1.124631,0.406987 -3.797331,0.571824 -4.945434,0.305006 z m 3.753277,-3.205036 c 1.665687,-0.578463 3.042422,-2.35597 3.006724,-4.032192 -0.03786,-1.777703 -1.499028,-3.63238 -3.367924,-4.136671 -4.655199,-1.256128 -8.050201,3.867015 -4.731947,7.140623 1.341673,1.32362 3.176153,1.693979 5.093147,1.02824 z"
           style="display:inline;fill:#000000;stroke-width:0.17482"
           id="path3387-3"
           sodipodi:nodetypes="sssssssssssasss"
           inkscape:label="oponaT" />
      </g>
    </g>
    <path
       d="M 44.280388,8.678622 44.143729,8.3813519 c -0.434595,-0.9453621 -0.126808,-2.4439165 0.688828,-3.0325373 0.54346,-0.3922006 2.053488,-0.4116629 2.554842,-0.032922 0.44363,0.3351283 0.739646,0.7547284 0.877781,1.2442536 0.130897,0.4638642 0.185623,0.4638787 -1.036171,-2.469e-4 -0.945289,-0.3591052 -1.081524,-0.2621446 -0.830995,0.5914337 0.09748,0.3321231 0.273862,0.7875986 0.391963,1.0121668 0.1181,0.224567 0.212118,0.4789272 0.20406,0.5121642"
       style="fill:#ffffff;stroke-width:0.0317917"
       id="path12839"
       sodipodi:nodetypes="csssscssc"
       inkscape:label="kask"
       inkscape:export-filename="/home/adrian/PycharmProjects/pythonProject/media/bolid_red_1.png"
       inkscape:export-xdpi="96"
       inkscape:export-ydpi="96" />
    <g
       id="g14736"
       style="fill:#d40055">
      <path
         style="fill:#ff5599;stroke:#000000;stroke-width:0.174178px;stroke-linecap:butt;stroke-linejoin:miter;stroke-opacity:1"
         d="m 26.191697,6.8473421 0.553536,-1.0733403 2.669256,-1.1556095 3.329138,-0.6470478 2.824883,-0.1731187 1.221246,0.042481 0.254742,0.9235042 -0.120109,1.0634493 -2.041631,0.526752 c 0,0 -3.547034,0.3527466 -3.641384,0.3718469 -0.09435,0.019098 -3.219917,0.6106702 -3.219917,0.6106702 l -1.515837,0.082693 z"
         id="path13680"
         inkscape:label="fan"
         inkscape:export-filename="/home/adrian/PycharmProjects/pythonProject/media/bolid_red_1.png"
         inkscape:export-xdpi="96"
         inkscape:export-ydpi="96" />
      <path
         style="display:inline;fill:#d40055;stroke-width:0.115086"
         d="m 24.864015,15.093212 c -0.03852,-0.05785 -0.0083,-0.332877 0.06722,-0.611159 0.179764,-0.662645 0.106528,-2.255274 -0.152349,-2.892579 C 24.667415,11.315053 24.556499,10.96159 24.300197,10.442886 23.653565,9.449467 22.565099,8.5628054 21.757631,8.2236187 21.253816,8.0082661 20.335245,7.8695573 19.723669,7.8263794 18.25537,7.7227178 16.675353,8.1371206 15.580036,8.91316 c -0.91066,0.432448 -1.483619,1.291675 -1.930225,2.317812 -0.346467,1.087773 -0.342125,0.89379 -1.252133,0.890268 -1.025286,-0.05254 -1.344558,-0.217126 -1.368985,-0.478057 -0.05359,-0.446985 -0.08496,-1.632144 -0.08496,-4.4672029 V 2.8125152 l 0.292933,-0.2933845 0.292933,-0.2933841 h 3.942094 c 2.634663,0 4.038636,0.04083 4.23318,0.1231038 0.49405,0.208941 0.55634,0.5247185 0.55634,2.8203638 v 2.1568917 l 0.447956,0.013127 c 0.246375,0.00722 0.479036,0.010079 0.517021,0.00632 C 23.258657,6.9468528 24.626198,6.2018701 25.754773,5.7988996 27.12571,5.2693958 27.340804,5.076148 28.115657,4.7584781 28.69038,4.5250147 30.35556,3.9711646 31.039861,3.7191461 31.695019,3.475104 33.714579,3.2271665 35.444412,3.2249208 l 3.29743,-0.00131 0.340565,0.1777948 c 0.514782,0.2687457 0.485051,0.8495398 0.204076,1.2891592 -0.127436,0.1993885 -0.583886,0.3931235 -0.853354,0.5668504 -0.823081,0.3432631 -0.85522,0.7336539 0.634678,0.7816441 0.821651,0.012686 1.050193,0.1256393 1.081823,0.5346564 0.01792,0.2317557 0.09025,0.2582751 0.846397,0.3103284 0.454741,0.031303 0.955505,0.1242292 1.112811,0.2064989 0.448396,0.2345068 1.326631,1.0236893 1.326631,1.1921109 0,0.083708 0.120948,0.1528755 0.268774,0.1537083 4.525199,0.035292 3.021956,0.078169 4.525199,0.035292 1.870396,-0.031079 1.138326,-0.4749048 1.98034,-1.2129055 0.258416,-0.2222958 0.409077,-0.2670464 0.746593,-0.2217579 0.467807,0.06277 2.296378,0.4159399 3.409217,0.658455 1.172268,0.2171518 2.268956,0.4820047 3.464192,0.7274302 0.205572,0.032191 0.122076,0.096601 -0.165402,0.241317 -0.99143,0.748285 -1.223943,1.125271 -1.759654,1.776381 -0.81111,1.174708 -1.245067,2.664555 -0.84614,4.055175 0.101131,0.314855 0.152325,0.601752 0.113762,0.637544 -0.122642,0.113838 -30.232349,0.07399 -30.308323,-0.04011 z m 3.109072,-8.4842825 c 0.127533,-0.089534 0.301176,-0.1643755 0.385875,-0.1663162 0.0847,-0.00191 0.810386,-0.2318078 1.612641,-0.5108203 1.627523,-0.5660256 3.366192,-0.8453364 5.057795,-0.8125156 1.086257,0.021079 1.238773,-0.026096 1.238773,-0.383158 0,-0.4513952 -0.205911,-0.5147083 -1.666397,-0.5123838 -2.281833,0.00362 -3.328625,0.2095687 -6.157899,1.2114467 -1.554991,0.5506409 -1.711268,0.6593537 -1.516931,1.055248 0.160177,0.3263082 0.668178,0.3838505 1.046143,0.1184992 z m 38.564426,8.3386915 c 0.139608,-0.465778 0.324231,-1.857347 0.259354,-1.954795 -0.03561,-0.05346 -0.07312,-0.339976 -0.08339,-0.636696 -0.01139,-0.330708 -0.06458,-0.761499 -0.23713,-1.052776 -0.249058,-0.577385 -0.213819,-0.471706 -0.554969,-0.975437 -0.180739,-0.167168 -0.225768,-0.310975 -0.431477,-0.487222 -0.32874,-0.37517 -0.405519,-0.46648 -0.89602,-0.902213 0.03147,-0.02919 0.403801,0.04797 0.827457,0.171484 0.882427,0.257254 1.062323,0.374912 1.279822,0.386713 0.734109,0.273751 1.691379,0.452425 2.485743,0.719886 0.0706,0.05396 0.514187,0.173432 0.985761,0.265507 0.01231,0.0024 0.02469,0.0049 0.037,0.0074 0.960549,0.194364 2.088788,0.685186 2.795959,1.217832 0.616344,0.464241 1.052955,1.218578 1.137436,1.437139 0.133861,0.301745 0.254819,0.719255 0.292916,1.081018 0.02798,0.280661 -0.02929,0.493821 -0.178837,0.665264 -0.219586,0.251781 -0.227466,0.252328 -4.007034,0.27869 l -3.786999,0.02641 z"
         id="path661"
         sodipodi:nodetypes="scsccsccccscccssscsccccccssccsssscccscccccssssssssssssssccccsccsssccssccs"
         inkscape:label="bolid"
         inkscape:export-filename="/home/adrian/PycharmProjects/pythonProject/media/bolid_red_1.png"
         inkscape:export-xdpi="96"
         inkscape:export-ydpi="96" />
    </g>
  </g>
</svg>
